<?xml version="1.0" encoding="utf-8"?>
<!-- Generator: Adobe Illustrator 23.0.2, SVG Export Plug-In . SVG Version: 6.00 Build 0)  -->
<svg version="1.1" id="Layer_1" xmlns="http://www.w3.org/2000/svg" xmlns:xlink="http://www.w3.org/1999/xlink" x="0px" y="0px"
	 viewBox="0 0 2356 432" style="enable-background:new 0 0 2356 432;" xml:space="preserve">
<style type="text/css">
	.st0{fill:#FFFFFF;}
	.st1{fill:#EE3431;}
	.st2{fill-rule:evenodd;clip-rule:evenodd;fill:url(#SVGID_1_);stroke:#8B1812;stroke-width:6.4666;stroke-miterlimit:3.8637;}
	.st3{clip-path:url(#SVGID_3_);fill-rule:evenodd;clip-rule:evenodd;fill:url(#SVGID_4_);}
	.st4{clip-path:url(#SVGID_3_);fill-rule:evenodd;clip-rule:evenodd;fill:#F9B6A7;fill-opacity:0.25;}
	.st5{fill:#7A0D06;}
	.st6{clip-path:url(#SVGID_6_);fill:#FFFFFF;}
</style>
<g>
	<g>
		<path class="st0" d="M98.4,202.6l4-0.7c4.9-0.8,9.6-1.9,14-3.2c4.4-1.3,8.2-3.3,11.5-5.9c3.3-2.6,5.9-6.1,7.8-10.5
			c2-4.4,2.9-10.1,2.9-17.2c0-5.3-0.8-9.8-2.5-13.6c-1.6-3.8-3.9-6.9-6.8-9.4c-2.9-2.4-6.5-4.3-10.6-5.4c-4.2-1.2-8.8-1.8-13.8-1.8
			c-2.6,0-4.9,0.1-6.8,0.2c-1.9,0.1-4.3,0.3-7.1,0.6v129.7H72.1V126.9c5.7-0.5,12-0.8,18.9-1.1c6.9-0.3,13.7-0.4,20.3-0.4
			c8.1,0,15.1,0.9,21.1,2.7c6,1.8,10.9,4.4,14.9,7.7c3.9,3.3,6.8,7.3,8.7,12.1s2.9,10.1,2.9,16.1c0,6.3-1.1,12.1-3.4,17.5
			c-2.3,5.4-5.8,10.1-10.6,14.1s-10.8,7.1-18.1,9.4c-7.3,2.3-16,3.5-26.1,3.5h-1.2L98.4,202.6z"/>
		<path class="st0" d="M183.7,265.4V126.2h18.9v128.6h53l-1.4,10.6H183.7z"/>
		<path class="st0" d="M369,265.4l-17.5-51l-53.7,0.7L279,265.4h-13.9l55.3-138l16.4-4.8l51.8,142.7H369z M348.7,205.3l-23.2-65
			l-24.3,65H348.7z"/>
		<path class="st0" d="M423.4,265.4V137l-42.9-0.7l1.4-10.1h103.5l-1.4,9.6l-41.6,1.1v128.4H423.4z"/>
		<path class="st0" d="M504.8,265.4V126.2h18.9v139.2H504.8z"/>
		<path class="st0" d="M668.5,266.1l-98.6-108.5h-0.4c0.2,10.2,0.4,19.6,0.5,28c0.1,3.6,0.2,7.2,0.2,10.8c0,3.6,0.1,6.9,0.1,9.9
			c0,3,0.1,5.6,0.1,7.8c0,2.2,0.1,3.7,0.1,4.5v46.9h-12.5V125.3h8.3l98.7,108.2h0.1c-0.2-9.5-0.3-18.4-0.4-26.5
			c0-3.4,0-6.9-0.1-10.5c0-3.5-0.1-6.9-0.1-10c0-3.1-0.1-5.9-0.1-8.4s0-4.3,0-5.7v-46.1h12.5v139.7H668.5z"/>
		<path class="st0" d="M712,265.4V126.2h18.9v139.2H712z"/>
		<path class="st0" d="M869.8,236.1c-2.5,6.2-6.1,11.6-11,16.2c-4.9,4.6-10.9,8.3-18.1,11c-7.2,2.7-15.5,4.1-24.9,4.1
			c-7.8,0-14.9-0.9-21.1-2.6c-6.3-1.7-11.7-4.5-16.2-8.4c-4.5-3.9-8-8.9-10.4-15.2c-2.4-6.3-3.6-13.9-3.6-23v-92H783V221
			c0,7,0.7,12.7,2.2,17.3c1.5,4.5,3.7,8.1,6.5,10.8c2.9,2.7,6.4,4.6,10.7,5.6c4.3,1.1,9.2,1.6,14.9,1.6c6.9,0,13-0.7,18.4-2.1
			c5.4-1.4,9.5-3.6,12.3-6.5c2.5-2.6,4.3-6.3,5.5-11c1.2-4.7,1.8-10.1,1.8-16.3v-94.2h18.3v90.1
			C873.5,223.3,872.3,229.9,869.8,236.1z"/>
		<path class="st0" d="M1046.3,265.4l-11.5-106.2l-49.1,106.2H977l-53.3-106.2l-9.4,106.2h-12.4l14.3-140.1h11.5l56.9,114.3
			l53.3-114.3h11.6l15.5,140.1H1046.3z"/>
	</g>
	<rect x="72.1" y="286" class="st1" width="992.9" height="6.5"/>
	<g>
		
			<linearGradient id="SVGID_1_" gradientUnits="userSpaceOnUse" x1="-6114.397" y1="7654.8809" x2="-6114.397" y2="3984.741" gradientTransform="matrix(9.640000e-02 0 0 9.640000e-02 1881.2972 -339.9043)">
			<stop  offset="0" style="stop-color:#EE3431"/>
			<stop  offset="0.1523" style="stop-color:#7A0D06"/>
			<stop  offset="1" style="stop-color:#7A0D06"/>
		</linearGradient>
		<path class="st2" d="M1113.1,221.1c0-97.7,80.1-176.9,178.8-176.9c98.7,0,178.8,79.2,178.8,176.9c0,97.7-80,176.9-178.8,176.9
			C1193.1,398,1113.1,318.8,1113.1,221.1z"/>
		<g>
			<defs>
				<path id="SVGID_2_" d="M1113.6,221.1c0-97.7,80.1-176.9,178.8-176.9c98.7,0,178.8,79.2,178.8,176.9
					c0,97.7-80.1,176.9-178.8,176.9C1193.7,398,1113.6,318.8,1113.6,221.1z"/>
			</defs>
			<clipPath id="SVGID_3_">
				<use xlink:href="#SVGID_2_"  style="overflow:visible;"/>
			</clipPath>
			
				<radialGradient id="SVGID_4_" cx="-33438.7734" cy="5245.7007" r="225.0397" gradientTransform="matrix(1.2552 0 0 1.242 43265.9844 -6273.2036)" gradientUnits="userSpaceOnUse">
				<stop  offset="0" style="stop-color:#FFFFFF"/>
				<stop  offset="0.3086" style="stop-color:#EE3431"/>
				<stop  offset="0.5508" style="stop-color:#7A0D06"/>
				<stop  offset="1" style="stop-color:#9E1D1A"/>
			</radialGradient>
			<path class="st3" d="M1113.6,206.6c0-97.7,80.1-176.8,178.8-176.8c98.7,0,178.8,79.2,178.8,176.8c0,97.8-80.1,176.9-178.8,176.9
				C1193.7,383.5,1113.6,304.3,1113.6,206.6z"/>
			<path class="st4" d="M1161.3,148.7c0-50.6,58.9-91.7,131.7-91.7c72.7,0,131.7,41,131.7,91.7c0,50.6-59,91.7-131.7,91.7
				C1220.3,240.4,1161.3,199.3,1161.3,148.7z"/>
		</g>
		<path class="st5" d="M1197.8,221c0-17.2,14.1-31.2,31.5-31.2h31.5v-31.2c0-17.2,14.1-31.2,31.5-31.2c17.4,0,31.5,14,31.5,31.2
			v31.2h31.5c17.4,0,31.6,14,31.6,31.2c0,17.2-14.1,31.2-31.6,31.2h-31.5v31.2c0,17.2-14.1,31.2-31.5,31.2
			c-17.4,0-31.5-14-31.5-31.2v-31.2h-31.5C1211.9,252.2,1197.8,238.3,1197.8,221z"/>
		<g>
			<defs>
				<path id="SVGID_5_" d="M1197.8,221c0-17.2,14.1-31.2,31.5-31.2h31.5v-31.2c0-17.2,14.1-31.2,31.5-31.2c17.4,0,31.5,14,31.5,31.2
					v31.2h31.5c17.4,0,31.6,14,31.6,31.2c0,17.2-14.1,31.2-31.6,31.2h-31.5v31.2c0,17.2-14.1,31.2-31.5,31.2
					c-17.4,0-31.5-14-31.5-31.2v-31.2h-31.5C1211.9,252.2,1197.8,238.3,1197.8,221z"/>
			</defs>
			<clipPath id="SVGID_6_">
				<use xlink:href="#SVGID_5_"  style="overflow:visible;"/>
			</clipPath>
			<path class="st6" d="M1203.2,226.5c0-17.3,14.1-31.2,31.6-31.2h31.5v-31.2c0-17.3,14.2-31.2,31.6-31.2
				c17.4,0,31.5,13.9,31.5,31.2v31.2h31.6c17.4,0,31.5,13.9,31.5,31.2c0,17.2-14.1,31.1-31.5,31.1h-31.6v31.3
				c0,17.2-14.1,31.2-31.5,31.2c-17.4,0-31.6-14-31.6-31.2v-31.3h-31.5C1217.4,257.6,1203.2,243.7,1203.2,226.5z"/>
		</g>
	</g>
	<g>
		<path class="st0" d="M1593.8,265.4l-17.4-51l-53.4,0.7l-18.7,50.3h-13.8l55.1-138l16.3-4.8l51.5,142.7H1593.8z M1573.6,205.3
			l-23.1-65l-24.1,65H1573.6z"/>
		<path class="st0" d="M1741.2,266.1l-98-108.5h-0.4c0.2,10.2,0.4,19.6,0.5,28c0.1,3.6,0.2,7.2,0.2,10.8c0,3.6,0.1,6.9,0.1,9.9
			c0,3,0.1,5.6,0.1,7.7c0,2.2,0.1,3.7,0.1,4.5v46.9h-12.5V125.3h8.3l98.2,108.2h0.1c-0.2-9.5-0.3-18.3-0.4-26.5
			c0-3.4,0-6.9-0.1-10.5c0-3.5-0.1-6.9-0.1-10c0-3.1-0.1-5.9-0.1-8.4c0-2.4,0-4.3,0-5.7v-46.1h12.5v139.7H1741.2z"/>
		<path class="st0" d="M1872.1,207.6l-30.9-1.6l1.5-7.2h47.7v56.8c-2.9,1.4-6.5,2.7-10.7,4.1c-4.3,1.4-8.9,2.6-13.8,3.7
			c-5,1.1-10.1,2.1-15.5,2.8c-5.3,0.7-10.5,1.1-15.5,1.1c-10,0-18.5-1.7-25.5-5.2c-7-3.5-12.6-8.4-17-14.8c-4.4-6.4-7.6-14-9.6-22.9
			c-2-8.9-3-18.8-3-29.6c0-10.9,1.4-20.6,4.1-29.3c2.8-8.7,6.9-16,12.5-22.1c5.6-6.1,12.5-10.7,20.9-13.9c8.4-3.2,18.3-4.8,29.6-4.8
			c2.8,0,5.9,0.1,9.4,0.3c3.5,0.2,6.9,0.5,10.3,0.9c3.4,0.4,6.6,0.8,9.6,1.2c3,0.5,5.5,0.9,7.5,1.2l-4.9,16.2
			c-2.4-0.7-5.3-1.5-8.9-2.2c-3.6-0.8-7.3-1.5-11.3-2c-3.9-0.6-7.9-1.1-11.8-1.5c-3.9-0.4-7.4-0.6-10.5-0.6c-5.1,0-9.8,0.4-14.3,1.2
			c-4.5,0.8-8.6,2.8-12.4,5.8c-2.1,1.6-3.8,4.2-5,7.7c-1.3,3.5-2.3,7.6-3,12.1c-0.7,4.5-1.2,9.4-1.5,14.5
			c-0.3,5.2-0.4,10.2-0.4,15.2c0,9.2,0.6,17.5,1.9,25.1c1.3,7.6,3.3,14.1,6.1,19.5c2.8,5.4,6.4,9.7,10.9,12.6c4.5,3,10,4.5,16.5,4.5
			c3.1,0,6.3-0.1,9.8-0.3c3.4-0.2,6.8-0.5,10.1-0.9c3.3-0.4,6.4-0.8,9.4-1.2c2.9-0.5,5.4-0.9,7.5-1.4V207.6z"/>
		<path class="st0" d="M2050.7,195.3c0,11.1-1.4,21-4.3,29.9c-2.8,8.9-7.1,16.4-12.7,22.7c-5.6,6.3-12.6,11.1-21.1,14.4
			c-8.5,3.4-18.3,5-29.5,5c-11.4,0-21.2-1.7-29.4-5.2c-8.2-3.4-15-8.3-20.2-14.6c-5.2-6.3-9.1-13.9-11.6-22.7
			c-2.5-8.8-3.7-18.7-3.7-29.6c0-10.9,1.3-20.7,3.8-29.4c2.5-8.7,6.5-16.1,11.8-22.2c5.3-6.1,12.1-10.8,20.3-14.1
			c8.2-3.3,18-4.9,29.3-4.9c11.2,0,21,1.6,29.4,4.9c8.4,3.3,15.4,8,21,14.1c5.6,6.1,9.8,13.5,12.6,22.2
			C2049.3,174.6,2050.7,184.4,2050.7,195.3z M2030.5,195.3c0-8.9-0.9-17-2.7-24.3c-1.8-7.3-4.6-13.6-8.5-18.9
			c-3.8-5.3-8.7-9.3-14.6-12.2c-5.9-2.9-13-4.3-21.2-4.3c-7.1,0-13.8,0.8-19.9,2.3c-6.1,1.5-11,3.9-14.6,6.9c-2,1.7-3.7,4.3-5,7.6
			c-1.4,3.4-2.4,7.3-3.3,11.8c-0.8,4.5-1.4,9.4-1.8,14.7c-0.4,5.3-0.5,10.8-0.5,16.5c0,8.8,0.7,16.9,2.2,24.4
			c1.5,7.5,4,13.9,7.4,19.4c3.4,5.4,8,9.7,13.8,12.8c5.7,3.1,12.9,4.6,21.5,4.6c8.2,0,15.2-0.7,20.9-2.2c5.7-1.5,10.9-4.2,15.4-8.1
			c2-1.6,3.7-4.2,5-7.7c1.4-3.5,2.5-7.5,3.4-12.1c0.9-4.6,1.6-9.5,2-14.9C2030.3,206.1,2030.5,200.7,2030.5,195.3z"/>
		<path class="st0" d="M2081,265.4V126.2h18.9v128.6h52.7l-1.4,10.6H2081z"/>
		<path class="st0" d="M2265.2,265.4l-17.4-51l-53.4,0.7l-18.7,50.3h-13.8l55.1-138l16.3-4.8l51.5,142.7H2265.2z M2245,205.3
			l-23.1-65l-24.1,65H2245z"/>
	</g>
	<g>
		<path class="st0" d="M1959.8,282.2c-3.4,0-6.1,2.6-6.1,5.8c0,3.2,2.7,5.8,6.1,5.8c3.4,0,6.1-2.6,6.1-5.8
			C1966,284.8,1963.2,282.2,1959.8,282.2z M1959.8,281.3c3.9,0,7.1,3,7.1,6.7c0,3.7-3.2,6.7-7.1,6.7c-3.9,0-7.1-3-7.1-6.7
			C1952.7,284.3,1955.9,281.3,1959.8,281.3z M1961.9,291.9l-2.2-3.3c-0.2,0-0.6,0-1.2-0.1v3.3h-1.1v-7.7l0.9,0c0.5,0,0.9,0,1.2,0
			c2,0,2.9,0.7,2.9,2.2c0,0.5-0.2,0.9-0.5,1.3c-0.3,0.4-0.7,0.6-1.1,0.7l2.4,3.5H1961.9z M1958.5,285.2v2.5c0.3,0,0.5,0.1,0.8,0.1
			c0.7,0,1.1-0.1,1.4-0.3c0.3-0.2,0.5-0.6,0.5-1.1c0-0.4-0.2-0.7-0.5-0.9c-0.3-0.2-0.8-0.3-1.5-0.3
			C1959.1,285.1,1958.9,285.1,1958.5,285.2z"/>
		<g>
			<path class="st0" d="M1502.7,319.2h-6.2v17.5h-6v-41.5c1.8-0.1,3.8-0.2,6-0.3c2.2-0.1,4.3-0.1,6.4-0.1c2.6,0,4.8,0.3,6.7,0.8
				s3.5,1.3,4.7,2.2c1.2,1,2.2,2.2,2.8,3.6c0.6,1.4,0.9,3,0.9,4.8c0,1.7-0.3,3.3-0.8,4.6s-1.2,2.5-2,3.5s-1.8,1.9-3,2.6
				c-1.1,0.7-2.3,1.3-3.6,1.7c1.3,2.1,2.6,4.2,3.8,6.1c1.2,1.9,2.5,3.6,3.7,5.1c1.2,1.5,2.5,2.6,3.8,3.5c1.3,0.9,2.6,1.3,4.1,1.3
				h0.4v1.8c-0.6,0.2-1.4,0.4-2.4,0.5c-1,0.1-2,0.2-3,0.2c-1.4,0-2.7-0.2-3.7-0.5c-1-0.4-2-1.1-3-2.1s-2-2.4-3.1-4.2
				c-1.1-1.8-2.5-4.1-4.2-6.9L1502.7,319.2z M1498.3,316.3c2.7,0,4.9-0.1,6.6-0.4s3-0.7,3.9-1.3c0.4-0.2,0.8-0.6,1.1-1
				c0.3-0.4,0.6-0.9,0.9-1.6c0.2-0.6,0.4-1.4,0.6-2.3c0.1-0.9,0.2-2,0.2-3.3c0-1.6-0.2-3-0.7-4.1c-0.5-1.1-1.2-2-2.1-2.7
				c-0.9-0.7-2-1.2-3.4-1.5s-2.8-0.5-4.5-0.5c-0.8,0-1.6,0-2.2,0.1s-1.4,0.1-2.3,0.2v18.4H1498.3z"/>
			<path class="st0" d="M1553.7,336.7H1530v-41.6h22.7l-0.4,3l-16.3,0.2v14.7l15.3,0.2l-0.4,2.6l-14.9,0.3v17.3l18.1,0.3
				L1553.7,336.7z"/>
			<path class="st0" d="M1562.2,295.5c1-0.1,2-0.2,3.3-0.3s2.5-0.2,3.9-0.2s2.7-0.1,4.1-0.2c1.4,0,2.7-0.1,4-0.1
				c3.4,0,6.4,0.4,9.2,1.2c2.8,0.8,5.1,2,7.1,3.6s3.5,3.7,4.5,6.1c1.1,2.5,1.6,5.3,1.6,8.6c0,3.3-0.5,6.4-1.5,9.2
				c-1,2.8-2.5,5.2-4.4,7.2c-2,2-4.4,3.6-7.3,4.7c-2.9,1.1-6.3,1.7-10.2,1.7c-2.6,0-5.1-0.1-7.7-0.2s-4.8-0.3-6.7-0.5V295.5z
				 M1568.2,333.7c0.9,0.1,1.9,0.3,3,0.3c1.1,0.1,2.4,0.1,3.8,0.1c2.8,0,5.3-0.2,7.5-0.6c2.2-0.4,4-1.1,5.5-2.1
				c0.7-0.5,1.4-1.1,2.1-1.9c0.7-0.8,1.3-1.8,1.8-3.1s0.9-2.9,1.3-4.7c0.3-1.9,0.5-4.1,0.5-6.7c0-3.2-0.5-5.9-1.5-8.1s-2.4-4-4-5.3
				c-1.7-1.4-3.6-2.3-5.8-2.9c-2.2-0.6-4.5-0.9-6.8-0.9c-1,0-1.9,0-2.5,0c-0.7,0-1.3,0.1-1.8,0.1s-1,0.1-1.4,0.1
				c-0.4,0.1-0.9,0.1-1.5,0.2V333.7z"/>
			<path class="st0" d="M1633.2,336.7h-23.7v-41.6h22.7l-0.4,3l-16.3,0.2v14.7l15.3,0.2l-0.4,2.6l-14.9,0.3v17.3l18.1,0.3
				L1633.2,336.7z"/>
			<path class="st0" d="M1699.1,336.7l-3.6-31.7l-15.6,31.7h-2.8l-16.9-31.7l-3,31.7h-3.9l4.5-41.9h3.6l18,34.1l16.9-34.1h3.7
				l4.9,41.9H1699.1z"/>
			<path class="st0" d="M1737.9,336.7h-23.7v-41.6h22.7l-0.4,3l-16.3,0.2v14.7l15.3,0.2l-0.4,2.6l-14.9,0.3v17.3l18.1,0.3
				L1737.9,336.7z"/>
			<path class="st0" d="M1746.4,295.5c1-0.1,2-0.2,3.3-0.3s2.5-0.2,3.9-0.2s2.7-0.1,4.1-0.2c1.4,0,2.7-0.1,4-0.1
				c3.4,0,6.4,0.4,9.2,1.2c2.8,0.8,5.1,2,7.1,3.6s3.5,3.7,4.5,6.1c1.1,2.5,1.6,5.3,1.6,8.6c0,3.3-0.5,6.4-1.5,9.2
				c-1,2.8-2.5,5.2-4.4,7.2c-2,2-4.4,3.6-7.3,4.7s-6.3,1.7-10.2,1.7c-2.6,0-5.1-0.1-7.7-0.2c-2.5-0.1-4.8-0.3-6.7-0.5V295.5z
				 M1752.4,333.7c0.9,0.1,1.9,0.3,3,0.3c1.1,0.1,2.4,0.1,3.8,0.1c2.8,0,5.3-0.2,7.5-0.6c2.2-0.4,4-1.1,5.5-2.1
				c0.7-0.5,1.4-1.1,2.1-1.9c0.7-0.8,1.3-1.8,1.8-3.1s0.9-2.9,1.3-4.7c0.3-1.9,0.5-4.1,0.5-6.7c0-3.2-0.5-5.9-1.5-8.1s-2.4-4-4-5.3
				c-1.7-1.4-3.6-2.3-5.8-2.9c-2.2-0.6-4.5-0.9-6.8-0.9c-1,0-1.9,0-2.5,0c-0.7,0-1.3,0.1-1.8,0.1s-1,0.1-1.4,0.1
				c-0.4,0.1-0.9,0.1-1.5,0.2V333.7z"/>
			<path class="st0" d="M1793.7,336.7v-41.6h6v41.6H1793.7z"/>
			<path class="st0" d="M1826.8,337.3c-3.2,0-5.9-0.5-8.1-1.5c-2.2-1-4-2.5-5.4-4.3s-2.4-4.1-3.1-6.8s-1-5.6-1-8.8
				c0-4,0.6-7.3,1.8-10c1.2-2.7,2.8-4.9,4.7-6.5c1.9-1.7,4.1-2.9,6.6-3.6s4.8-1.1,7.3-1.1c0.9,0,1.9,0,3,0.1
				c1.1,0.1,2.2,0.1,3.2,0.2c1,0.1,2,0.2,2.9,0.3s1.6,0.2,2.1,0.3l-1.6,5c-0.6-0.2-1.4-0.4-2.4-0.6c-1-0.2-2.2-0.4-3.4-0.6
				c-1.2-0.2-2.4-0.3-3.5-0.4s-2.1-0.2-2.9-0.2c-1.7,0-3.2,0.1-4.5,0.4s-2.4,0.8-3.5,1.6c-1.3,0.9-2.2,2.7-2.7,5.4
				c-0.5,2.6-0.8,5.9-0.8,9.8c0,6,0.9,10.5,2.8,13.6c1.9,3.1,4.9,4.6,9,4.6c1.2,0,2.4,0,3.6-0.1c1.2-0.1,2.5-0.2,3.7-0.4
				c1.2-0.2,2.4-0.4,3.6-0.6c1.2-0.2,2.3-0.5,3.3-0.9v2.2c-1.1,0.5-2.2,0.9-3.4,1.3s-2.5,0.7-3.8,0.9c-1.3,0.3-2.6,0.5-3.9,0.6
				C1829.3,337.2,1828,337.3,1826.8,337.3z"/>
			<path class="st0" d="M1877.4,336.7l-5.5-15.2l-17.1,0.2l-6,15h-4.4l17.6-41.2l5.2-1.4l16.4,42.6H1877.4z M1870.9,318.8l-7.4-19.4
				l-7.7,19.4H1870.9z"/>
			<path class="st0" d="M1901.6,319.2h-6.2v17.5h-6v-41.5c1.8-0.1,3.8-0.2,6-0.3c2.2-0.1,4.3-0.1,6.4-0.1c2.6,0,4.8,0.3,6.7,0.8
				s3.5,1.3,4.7,2.2c1.2,1,2.2,2.2,2.8,3.6s0.9,3,0.9,4.8c0,1.7-0.3,3.3-0.8,4.6s-1.2,2.5-2,3.5c-0.8,1-1.8,1.9-3,2.6
				c-1.1,0.7-2.3,1.3-3.6,1.7c1.3,2.1,2.6,4.2,3.8,6.1c1.2,1.9,2.5,3.6,3.7,5.1c1.2,1.5,2.5,2.6,3.8,3.5c1.3,0.9,2.6,1.3,4.1,1.3
				h0.4v1.8c-0.6,0.2-1.4,0.4-2.4,0.5c-1,0.1-2,0.2-3,0.2c-1.4,0-2.7-0.2-3.7-0.5c-1-0.4-2-1.1-3-2.1c-1-1-2-2.4-3.1-4.2
				c-1.1-1.8-2.5-4.1-4.2-6.9L1901.6,319.2z M1897.2,316.3c2.7,0,4.9-0.1,6.6-0.4c1.7-0.3,3-0.7,3.9-1.3c0.4-0.2,0.8-0.6,1.1-1
				c0.3-0.4,0.6-0.9,0.9-1.6c0.2-0.6,0.4-1.4,0.6-2.3c0.1-0.9,0.2-2,0.2-3.3c0-1.6-0.2-3-0.7-4.1c-0.5-1.1-1.2-2-2.1-2.7
				c-0.9-0.7-2-1.2-3.4-1.5s-2.8-0.5-4.5-0.5c-0.8,0-1.6,0-2.2,0.1c-0.6,0-1.4,0.1-2.3,0.2v18.4H1897.2z"/>
			<path class="st0" d="M1952.6,336.7H1929v-41.6h22.7l-0.4,3l-16.3,0.2v14.7l15.3,0.2l-0.4,2.6l-14.9,0.3v17.3l18.1,0.3
				L1952.6,336.7z"/>
			<path class="st0" d="M1982.9,318l1.3-0.2c1.6-0.2,3-0.6,4.4-1s2.6-1,3.7-1.8c1-0.8,1.9-1.8,2.5-3.1c0.6-1.3,0.9-3,0.9-5.1
				c0-1.6-0.3-2.9-0.8-4.1c-0.5-1.1-1.2-2.1-2.2-2.8c-0.9-0.7-2-1.3-3.4-1.6c-1.3-0.4-2.8-0.5-4.4-0.5c-0.8,0-1.6,0-2.2,0.1
				c-0.6,0-1.4,0.1-2.3,0.2v38.7h-6v-41.4c1.8-0.1,3.8-0.2,6-0.3c2.2-0.1,4.3-0.1,6.4-0.1c2.6,0,4.8,0.3,6.7,0.8
				c1.9,0.5,3.5,1.3,4.7,2.3s2.2,2.2,2.8,3.6c0.6,1.4,0.9,3,0.9,4.8c0,1.9-0.4,3.6-1.1,5.2c-0.7,1.6-1.8,3-3.4,4.2
				c-1.5,1.2-3.4,2.1-5.8,2.8c-2.3,0.7-5.1,1-8.3,1h-0.4L1982.9,318z"/>
			<path class="st0" d="M2050.8,315.8c0,3.3-0.5,6.3-1.4,8.9c-0.9,2.7-2.3,4.9-4,6.8c-1.8,1.9-4,3.3-6.7,4.3c-2.7,1-5.8,1.5-9.4,1.5
				c-3.6,0-6.8-0.5-9.4-1.5c-2.6-1-4.8-2.5-6.4-4.4s-2.9-4.1-3.7-6.8c-0.8-2.6-1.2-5.6-1.2-8.8c0-3.2,0.4-6.2,1.2-8.8
				c0.8-2.6,2.1-4.8,3.8-6.6c1.7-1.8,3.9-3.2,6.5-4.2c2.6-1,5.7-1.5,9.3-1.5c3.6,0,6.7,0.5,9.4,1.5s4.9,2.4,6.7,4.2s3.1,4,4,6.6
				C2050.4,309.6,2050.8,312.5,2050.8,315.8z M2044.4,315.8c0-2.7-0.3-5.1-0.9-7.3s-1.5-4.1-2.7-5.6s-2.8-2.8-4.7-3.7
				c-1.9-0.9-4.1-1.3-6.8-1.3c-2.3,0-4.4,0.2-6.4,0.7c-2,0.5-3.5,1.2-4.7,2.1c-0.6,0.5-1.2,1.3-1.6,2.3c-0.4,1-0.8,2.2-1,3.5
				s-0.4,2.8-0.6,4.4c-0.1,1.6-0.2,3.2-0.2,4.9c0,2.6,0.2,5.1,0.7,7.3c0.5,2.2,1.3,4.2,2.4,5.8c1.1,1.6,2.6,2.9,4.4,3.8
				c1.8,0.9,4.1,1.4,6.9,1.4c2.6,0,4.9-0.2,6.7-0.7s3.5-1.3,4.9-2.4c0.6-0.5,1.2-1.3,1.6-2.3c0.4-1,0.8-2.2,1.1-3.6
				c0.3-1.4,0.5-2.8,0.6-4.4C2044.3,319,2044.4,317.4,2044.4,315.8z"/>
			<path class="st0" d="M2072.7,319.2h-6.2v17.5h-6v-41.5c1.8-0.1,3.8-0.2,6-0.3c2.2-0.1,4.3-0.1,6.4-0.1c2.6,0,4.8,0.3,6.7,0.8
				c1.9,0.5,3.5,1.3,4.7,2.2c1.2,1,2.2,2.2,2.8,3.6s0.9,3,0.9,4.8c0,1.7-0.3,3.3-0.8,4.6s-1.2,2.5-2,3.5s-1.8,1.9-3,2.6
				c-1.1,0.7-2.3,1.3-3.6,1.7c1.3,2.1,2.6,4.2,3.8,6.1c1.2,1.9,2.5,3.6,3.7,5.1c1.2,1.5,2.5,2.6,3.8,3.5c1.3,0.9,2.6,1.3,4.1,1.3
				h0.4v1.8c-0.6,0.2-1.4,0.4-2.4,0.5c-1,0.1-2,0.2-3,0.2c-1.4,0-2.7-0.2-3.7-0.5c-1-0.4-2-1.1-3-2.1c-1-1-2-2.4-3.1-4.2
				c-1.1-1.8-2.5-4.1-4.2-6.9L2072.7,319.2z M2068.4,316.3c2.7,0,4.9-0.1,6.6-0.4s3-0.7,3.9-1.3c0.4-0.2,0.8-0.6,1.1-1
				c0.3-0.4,0.6-0.9,0.9-1.6c0.2-0.6,0.4-1.4,0.6-2.3c0.1-0.9,0.2-2,0.2-3.3c0-1.6-0.2-3-0.7-4.1c-0.5-1.1-1.2-2-2.1-2.7
				c-0.9-0.7-2-1.2-3.4-1.5c-1.3-0.3-2.8-0.5-4.5-0.5c-0.8,0-1.6,0-2.2,0.1c-0.6,0-1.4,0.1-2.3,0.2v18.4H2068.4z"/>
			<path class="st0" d="M2107.1,336.7v-38.4l-13.6-0.2l0.4-3h32.8l-0.4,2.9l-13.2,0.3v38.4H2107.1z"/>
			<path class="st0" d="M2166.1,328c-0.8,1.8-1.9,3.5-3.5,4.8c-1.5,1.4-3.5,2.5-5.7,3.3c-2.3,0.8-4.9,1.2-7.9,1.2
				c-2.5,0-4.7-0.3-6.7-0.8s-3.7-1.3-5.1-2.5c-1.4-1.2-2.5-2.7-3.3-4.5c-0.8-1.9-1.1-4.2-1.1-6.9v-27.5h5.8v28.3
				c0,2.1,0.2,3.8,0.7,5.2c0.5,1.4,1.2,2.4,2.1,3.2c0.9,0.8,2,1.4,3.4,1.7s2.9,0.5,4.7,0.5c2.2,0,4.1-0.2,5.8-0.6s3-1.1,3.9-1.9
				c0.8-0.8,1.4-1.9,1.7-3.3c0.4-1.4,0.6-3,0.6-4.9v-28.1h5.8v26.9C2167.3,324.2,2166.9,326.1,2166.1,328z"/>
			<path class="st0" d="M2206.1,319.5l-9.9-0.5l0.5-2.2h15.2v17c-0.9,0.4-2.1,0.8-3.4,1.2c-1.4,0.4-2.8,0.8-4.4,1.1
				c-1.6,0.3-3.2,0.6-4.9,0.8c-1.7,0.2-3.3,0.3-4.9,0.3c-3.2,0-5.9-0.5-8.1-1.6c-2.2-1-4-2.5-5.4-4.4c-1.4-1.9-2.4-4.2-3.1-6.8
				s-1-5.6-1-8.8c0-3.2,0.4-6.2,1.3-8.7s2.2-4.8,4-6.6c1.8-1.8,4-3.2,6.7-4.2c2.7-1,5.8-1.4,9.4-1.4c0.9,0,1.9,0,3,0.1
				c1.1,0.1,2.2,0.2,3.3,0.3c1.1,0.1,2.1,0.2,3.1,0.4s1.8,0.3,2.4,0.4l-1.6,4.8c-0.8-0.2-1.7-0.4-2.8-0.7s-2.3-0.4-3.6-0.6
				c-1.3-0.2-2.5-0.3-3.8-0.4c-1.3-0.1-2.4-0.2-3.4-0.2c-1.6,0-3.1,0.1-4.6,0.4c-1.4,0.2-2.7,0.8-4,1.7c-0.7,0.5-1.2,1.3-1.6,2.3
				c-0.4,1.1-0.7,2.3-1,3.6c-0.2,1.4-0.4,2.8-0.5,4.3c-0.1,1.5-0.1,3.1-0.1,4.5c0,2.7,0.2,5.2,0.6,7.5c0.4,2.3,1.1,4.2,1.9,5.8
				c0.9,1.6,2.1,2.9,3.5,3.8c1.4,0.9,3.2,1.3,5.3,1.3c1,0,2,0,3.1-0.1c1.1-0.1,2.2-0.2,3.2-0.3c1.1-0.1,2-0.2,3-0.4
				c0.9-0.1,1.7-0.3,2.4-0.4V319.5z"/>
			<path class="st0" d="M2249.9,336.7l-5.5-15.2l-17.1,0.2l-6,15h-4.4l17.6-41.2l5.2-1.4l16.4,42.6H2249.9z M2243.5,318.8l-7.4-19.4
				l-7.7,19.4H2243.5z"/>
			<path class="st0" d="M2261.9,336.7v-41.6h6v38.4h16.8l-0.4,3.2H2261.9z"/>
		</g>
	</g>
</g>
</svg>
