<?xml version="1.0" encoding="utf-8"?>
<!-- Generator: Adobe Illustrator 23.0.4, SVG Export Plug-In . SVG Version: 6.00 Build 0)  -->
<svg version="1.1" id="Layer_1" xmlns="http://www.w3.org/2000/svg" xmlns:xlink="http://www.w3.org/1999/xlink" x="0px" y="0px"
	 viewBox="0 0 183.4 61.8" style="enable-background:new 0 0 183.4 61.8;" xml:space="preserve">
<style type="text/css">
	.st0{clip-path:url(#SVGID_2_);fill:url(#SVGID_3_);}
	.st1{clip-path:url(#SVGID_5_);fill:#7A0D06;}
	.st2{clip-path:url(#SVGID_7_);fill:url(#SVGID_8_);}
	.st3{opacity:0.25;clip-path:url(#SVGID_10_);}
	.st4{clip-path:url(#SVGID_12_);}
	.st5{clip-path:url(#SVGID_14_);fill-rule:evenodd;clip-rule:evenodd;fill:#F9B6A7;}
	.st6{clip-path:url(#SVGID_16_);fill:#7A0D06;}
	.st7{clip-path:url(#SVGID_18_);fill:#FFFFFF;}
	.st8{fill:none;}
	.st9{fill:#FFFFFF;}
	.st10{fill-rule:evenodd;clip-rule:evenodd;fill:#FFFFFF;}
</style>
<g>
	<defs>
		<path id="SVGID_1_" d="M7.2,31.2c0,14.4,11.7,26.1,26.1,26.1c14.4,0,26.1-11.7,26.1-26.1c0-14.4-11.7-26.1-26.1-26.1
			C18.9,5.1,7.2,16.8,7.2,31.2"/>
	</defs>
	<clipPath id="SVGID_2_">
		<use xlink:href="#SVGID_1_"  style="overflow:visible;"/>
	</clipPath>
	
		<linearGradient id="SVGID_3_" gradientUnits="userSpaceOnUse" x1="-30.8224" y1="804.3264" x2="-29.8224" y2="804.3264" gradientTransform="matrix(0 -52.2707 -52.2707 0 42076.0195 -1553.7278)">
		<stop  offset="0" style="stop-color:#EE3431"/>
		<stop  offset="0.1523" style="stop-color:#7A0D06"/>
		<stop  offset="1" style="stop-color:#7A0D06"/>
	</linearGradient>
	<rect x="7.2" y="5.1" class="st0" width="52.3" height="52.3"/>
</g>
<g>
	<defs>
		<rect id="SVGID_4_" x="7.1" y="5" width="170" height="52.4"/>
	</defs>
	<clipPath id="SVGID_5_">
		<use xlink:href="#SVGID_4_"  style="overflow:visible;"/>
	</clipPath>
	<path class="st1" d="M33.3,57.5c-14.5,0-26.2-11.8-26.2-26.2C7.1,16.8,18.9,5,33.3,5c14.5,0,26.2,11.8,26.2,26.2
		C59.5,45.7,47.8,57.5,33.3,57.5 M33.3,5.2C19,5.2,7.3,16.9,7.3,31.2c0,14.4,11.7,26.1,26.1,26.1c14.4,0,26.1-11.7,26.1-26.1
		C59.4,16.9,47.7,5.2,33.3,5.2"/>
</g>
<g>
	<defs>
		<path id="SVGID_6_" d="M7.3,30.2c0.6,13.9,12,25.1,26.1,25.1c14.1,0,25.6-11.1,26.1-25.1C59,16.2,47.5,5.1,33.4,5.1
			C19.3,5.1,7.9,16.2,7.3,30.2"/>
	</defs>
	<clipPath id="SVGID_7_">
		<use xlink:href="#SVGID_6_"  style="overflow:visible;"/>
	</clipPath>
	
		<radialGradient id="SVGID_8_" cx="-30.9143" cy="804.2932" r="1" gradientTransform="matrix(41.2926 0 0 -41.2926 1309.9442 33245.7305)" gradientUnits="userSpaceOnUse">
		<stop  offset="0" style="stop-color:#FFFFFF"/>
		<stop  offset="0.3086" style="stop-color:#EE3431"/>
		<stop  offset="0.5508" style="stop-color:#7A0D06"/>
		<stop  offset="1" style="stop-color:#9E1D1A"/>
	</radialGradient>
	<rect x="7.3" y="5.1" class="st2" width="52.2" height="50.1"/>
</g>
<g>
	<defs>
		<path id="SVGID_9_" d="M7.3,31.2c0,14.4,11.7,26.1,26.1,26.1c14.4,0,26.1-11.7,26.1-26.1c0-14.4-11.7-26.1-26.1-26.1
			C19,5.1,7.3,16.8,7.3,31.2"/>
	</defs>
	<clipPath id="SVGID_10_">
		<use xlink:href="#SVGID_9_"  style="overflow:visible;"/>
	</clipPath>
	<g class="st3">
		<g>
			<defs>
				<rect id="SVGID_11_" x="14.2" y="7" width="38.5" height="27.1"/>
			</defs>
			<clipPath id="SVGID_12_">
				<use xlink:href="#SVGID_11_"  style="overflow:visible;"/>
			</clipPath>
			<g class="st4">
				<defs>
					<rect id="SVGID_13_" x="14.2" y="7" width="38.5" height="27.1"/>
				</defs>
				<clipPath id="SVGID_14_">
					<use xlink:href="#SVGID_13_"  style="overflow:visible;"/>
				</clipPath>
				<path class="st5" d="M14.2,20.6C14.2,13.1,22.9,7,33.5,7c10.6,0,19.2,6.1,19.2,13.5c0,7.5-8.6,13.5-19.2,13.5
					C22.9,34.1,14.2,28,14.2,20.6"/>
			</g>
		</g>
	</g>
</g>
<g>
	<defs>
		<rect id="SVGID_15_" x="7.1" y="5" width="170" height="52.4"/>
	</defs>
	<clipPath id="SVGID_16_">
		<use xlink:href="#SVGID_15_"  style="overflow:visible;"/>
	</clipPath>
	<path class="st6" d="M19.6,31.2c0-2.5,2.1-4.6,4.6-4.6h4.6V22c0-2.5,2.1-4.6,4.6-4.6c2.5,0,4.6,2.1,4.6,4.6v4.6h4.6
		c2.5,0,4.6,2.1,4.6,4.6c0,2.5-2.1,4.6-4.6,4.6H38v4.6c0,2.5-2.1,4.6-4.6,4.6c-2.5,0-4.6-2.1-4.6-4.6v-4.6h-4.6
		C21.6,35.8,19.6,33.8,19.6,31.2"/>
</g>
<g>
	<defs>
		<path id="SVGID_17_" d="M28.8,22v4.6h-4.6c-2.5,0-4.6,2.1-4.6,4.6c0,2.5,2.1,4.6,4.6,4.6h4.6v4.6c0,2.5,2.1,4.6,4.6,4.6
			c2.5,0,4.6-2.1,4.6-4.6v-4.6h4.6c2.5,0,4.6-2.1,4.6-4.6c0-2.5-2.1-4.6-4.6-4.6H38V22c0-2.5-2.1-4.6-4.6-4.6
			C30.9,17.4,28.8,19.5,28.8,22"/>
	</defs>
	<clipPath id="SVGID_18_">
		<use xlink:href="#SVGID_17_"  style="overflow:visible;"/>
	</clipPath>
	<path class="st7" d="M20.4,32c0-2.5,2.1-4.6,4.6-4.6h4.6v-4.6c0-2.5,2.1-4.6,4.6-4.6c2.5,0,4.6,2.1,4.6,4.6v4.6h4.6
		c2.5,0,4.6,2.1,4.6,4.6c0,2.5-2.1,4.6-4.6,4.6h-4.6v4.6c0,2.5-2.1,4.6-4.6,4.6c-2.5,0-4.6-2.1-4.6-4.6v-4.6H25
		C22.4,36.6,20.4,34.6,20.4,32"/>
</g>
<rect x="7.1" y="5" class="st8" width="170" height="52.4"/>
<g>
	<path class="st9" d="M175,18.8c-1,0-1.9,0.8-1.9,1.9c0,1,0.8,1.9,1.9,1.9c1,0,1.9-0.8,1.9-1.9C176.9,19.7,176,18.8,175,18.8
		 M175,18.5c1.2,0,2.2,1,2.2,2.2c0,1.2-1,2.2-2.2,2.2c-1.2,0-2.2-1-2.2-2.2C172.8,19.5,173.8,18.5,175,18.5 M175.6,22l-0.7-1.1
		c-0.1,0-0.2,0-0.4,0V22h-0.3v-2.5l0.3,0c0.2,0,0.3,0,0.4,0c0.6,0,0.9,0.2,0.9,0.7c0,0.2,0,0.3-0.1,0.4c-0.1,0.1-0.2,0.2-0.3,0.2
		L176,22H175.6z M174.6,19.8v0.8c0.1,0,0.2,0,0.2,0c0.2,0,0.4,0,0.4-0.1c0.1-0.1,0.1-0.2,0.1-0.4c0-0.1-0.1-0.2-0.1-0.3
		c-0.1-0.1-0.3-0.1-0.5-0.1C174.8,19.8,174.7,19.8,174.6,19.8"/>
	<polygon class="st10" points="84.2,38 83,26.5 77.5,38 76.6,38 70.7,26.5 69.6,38 68.3,38 69.8,22.8 71.1,22.8 77.4,35.2 
		83.3,22.8 84.6,22.8 86.3,38 	"/>
	<polygon class="st10" points="97.7,38 89.5,38 89.5,22.9 97.4,22.9 97.2,24 91.6,24.1 91.6,29.4 96.9,29.5 96.8,30.5 91.6,30.6 
		91.6,36.8 97.9,36.9 	"/>
	<path class="st10" d="M102.8,36.9c0.3,0,0.7,0.1,1,0.1c0.4,0,0.8,0,1.3,0c1,0,1.8-0.1,2.6-0.2c0.8-0.2,1.4-0.4,1.9-0.8
		c0.2-0.2,0.5-0.4,0.7-0.7c0.2-0.3,0.4-0.7,0.6-1.1c0.2-0.5,0.3-1,0.4-1.7c0.1-0.7,0.2-1.5,0.2-2.4c0-1.2-0.2-2.2-0.5-2.9
		c-0.4-0.8-0.8-1.4-1.4-1.9c-0.6-0.5-1.3-0.8-2-1.1c-0.8-0.2-1.5-0.3-2.4-0.3c-0.4,0-0.6,0-0.9,0c-0.2,0-0.4,0-0.6,0
		c-0.2,0-0.3,0-0.5,0.1c-0.2,0-0.3,0-0.5,0.1V36.9z M100.7,23.1c0.3,0,0.7-0.1,1.1-0.1c0.4,0,0.9-0.1,1.3-0.1c0.5,0,0.9,0,1.4-0.1
		c0.5,0,0.9,0,1.4,0c1.2,0,2.2,0.1,3.2,0.4c1,0.3,1.8,0.7,2.5,1.3c0.7,0.6,1.2,1.3,1.6,2.2c0.4,0.9,0.6,1.9,0.6,3.1
		c0,1.2-0.2,2.3-0.5,3.3c-0.3,1-0.9,1.9-1.5,2.6c-0.7,0.7-1.5,1.3-2.5,1.7c-1,0.4-2.2,0.6-3.5,0.6c-0.9,0-1.8,0-2.7-0.1
		c-0.9,0-1.7-0.1-2.3-0.2V23.1z"/>
	<rect x="117.2" y="22.9" class="st10" width="2.1" height="15.1"/>
	<path class="st10" d="M128.8,38.2c-1.1,0-2.1-0.2-2.8-0.6c-0.8-0.4-1.4-0.9-1.9-1.6c-0.5-0.7-0.8-1.5-1.1-2.5c-0.2-1-0.3-2-0.3-3.2
		c0-1.4,0.2-2.6,0.6-3.6c0.4-1,1-1.8,1.7-2.4c0.7-0.6,1.4-1,2.3-1.3c0.8-0.3,1.7-0.4,2.5-0.4c0.3,0,0.7,0,1,0c0.4,0,0.8,0,1.1,0.1
		c0.4,0,0.7,0.1,1,0.1c0.3,0,0.6,0.1,0.7,0.1l-0.6,1.8c-0.2-0.1-0.5-0.1-0.8-0.2c-0.4-0.1-0.8-0.1-1.2-0.2c-0.4-0.1-0.8-0.1-1.2-0.2
		c-0.4,0-0.7-0.1-1-0.1c-0.6,0-1.1,0-1.6,0.1c-0.4,0.1-0.8,0.3-1.2,0.6c-0.5,0.3-0.8,1-1,1.9c-0.2,1-0.3,2.1-0.3,3.6
		c0,2.2,0.3,3.8,1,4.9c0.6,1.1,1.7,1.7,3.1,1.7c0.4,0,0.8,0,1.3,0c0.4,0,0.9-0.1,1.3-0.1c0.4-0.1,0.8-0.1,1.3-0.2
		c0.4-0.1,0.8-0.2,1.2-0.3v0.8c-0.4,0.2-0.8,0.3-1.2,0.5c-0.4,0.1-0.9,0.2-1.3,0.3c-0.4,0.1-0.9,0.2-1.3,0.2
		C129.6,38.2,129.2,38.2,128.8,38.2"/>
	<path class="st10" d="M146.4,38l-1.9-5.5l-6,0.1l-2.1,5.5h-1.5l6.1-15l1.8-0.5l5.7,15.5H146.4z M144.1,31.5l-2.6-7l-2.7,7H144.1z"
		/>
	<path class="st10" d="M154.8,31.6h-2.2V38h-2.1V23c0.6,0,1.3-0.1,2.1-0.1c0.8,0,1.5,0,2.2,0c0.9,0,1.7,0.1,2.3,0.3
		c0.7,0.2,1.2,0.5,1.6,0.8c0.4,0.4,0.8,0.8,1,1.3c0.2,0.5,0.3,1.1,0.3,1.7c0,0.6-0.1,1.2-0.3,1.7c-0.2,0.5-0.4,0.9-0.7,1.3
		c-0.3,0.4-0.6,0.7-1,0.9c-0.4,0.3-0.8,0.5-1.2,0.6c0.5,0.8,0.9,1.5,1.3,2.2c0.4,0.7,0.9,1.3,1.3,1.9c0.4,0.5,0.9,1,1.3,1.3
		c0.4,0.3,0.9,0.5,1.4,0.5h0.1v0.7c-0.2,0.1-0.5,0.1-0.8,0.2c-0.3,0-0.7,0.1-1,0.1c-0.5,0-0.9-0.1-1.3-0.2c-0.4-0.1-0.7-0.4-1-0.7
		c-0.3-0.4-0.7-0.9-1.1-1.5c-0.4-0.6-0.9-1.5-1.4-2.5L154.8,31.6z M153.3,30.6c0.9,0,1.7-0.1,2.3-0.2c0.6-0.1,1-0.3,1.3-0.5
		c0.1-0.1,0.3-0.2,0.4-0.4c0.1-0.1,0.2-0.3,0.3-0.6c0.1-0.2,0.1-0.5,0.2-0.8c0-0.3,0.1-0.7,0.1-1.2c0-0.6-0.1-1.1-0.3-1.5
		c-0.2-0.4-0.4-0.7-0.7-1c-0.3-0.3-0.7-0.4-1.2-0.6c-0.5-0.1-1-0.2-1.6-0.2c-0.3,0-0.5,0-0.8,0c-0.2,0-0.5,0-0.8,0.1v6.7H153.3z"/>
	<polygon class="st10" points="172.7,38 164.4,38 164.4,22.9 172.3,22.9 172.2,24 166.5,24.1 166.5,29.4 171.8,29.5 171.7,30.5 
		166.5,30.6 166.5,36.8 172.8,36.9 	"/>
	<rect x="68.3" y="40" class="st9" width="104.5" height="0.9"/>
	<g>
		<path class="st9" d="M147.9,48.9l-0.6-1.8l-1.8,0l-0.6,1.7h-0.5l1.9-4.7l0.6-0.2l1.8,4.9H147.9z M147.2,46.8l-0.8-2.2l-0.8,2.2
			H147.2z"/>
		<path class="st9" d="M153,48.9l-3.4-3.7h0c0,0.4,0,0.7,0,1c0,0.1,0,0.2,0,0.4c0,0.1,0,0.2,0,0.3c0,0.1,0,0.2,0,0.3
			c0,0.1,0,0.1,0,0.2v1.6h-0.4v-4.8h0.3l3.4,3.7h0c0-0.3,0-0.6,0-0.9c0-0.1,0-0.2,0-0.4c0-0.1,0-0.2,0-0.3s0-0.2,0-0.3
			c0-0.1,0-0.1,0-0.2v-1.6h0.4v4.8H153z"/>
		<path class="st9" d="M157.5,46.9l-1.1-0.1l0.1-0.2h1.6v2c-0.1,0-0.2,0.1-0.4,0.1s-0.3,0.1-0.5,0.1s-0.3,0.1-0.5,0.1
			c-0.2,0-0.4,0-0.5,0c-0.3,0-0.6-0.1-0.9-0.2c-0.2-0.1-0.4-0.3-0.6-0.5c-0.2-0.2-0.3-0.5-0.3-0.8c-0.1-0.3-0.1-0.6-0.1-1
			s0-0.7,0.1-1c0.1-0.3,0.2-0.6,0.4-0.8c0.2-0.2,0.4-0.4,0.7-0.5c0.3-0.1,0.6-0.2,1-0.2c0.1,0,0.2,0,0.3,0s0.2,0,0.4,0
			c0.1,0,0.2,0,0.3,0c0.1,0,0.2,0,0.3,0l-0.2,0.6c-0.1,0-0.2-0.1-0.3-0.1s-0.3,0-0.4-0.1c-0.1,0-0.3,0-0.4-0.1c-0.1,0-0.3,0-0.4,0
			c-0.2,0-0.3,0-0.5,0c-0.2,0-0.3,0.1-0.4,0.2c-0.1,0.1-0.1,0.1-0.2,0.3c0,0.1-0.1,0.3-0.1,0.4c0,0.2,0,0.3-0.1,0.5s0,0.4,0,0.5
			c0,0.3,0,0.6,0.1,0.9c0,0.3,0.1,0.5,0.2,0.7c0.1,0.2,0.2,0.3,0.4,0.4c0.2,0.1,0.3,0.2,0.6,0.2c0.1,0,0.2,0,0.3,0
			c0.1,0,0.2,0,0.3,0s0.2,0,0.3,0c0.1,0,0.2,0,0.3,0V46.9z"/>
		<path class="st9" d="M163.7,46.5c0,0.4,0,0.7-0.1,1c-0.1,0.3-0.2,0.6-0.4,0.8c-0.2,0.2-0.4,0.4-0.7,0.5s-0.6,0.2-1,0.2
			c-0.4,0-0.7-0.1-1-0.2c-0.3-0.1-0.5-0.3-0.7-0.5c-0.2-0.2-0.3-0.5-0.4-0.8c-0.1-0.3-0.1-0.6-0.1-1s0-0.7,0.1-1
			c0.1-0.3,0.2-0.6,0.4-0.8c0.2-0.2,0.4-0.4,0.7-0.5c0.3-0.1,0.6-0.2,1-0.2c0.4,0,0.7,0.1,1,0.2c0.3,0.1,0.5,0.3,0.7,0.5
			c0.2,0.2,0.3,0.5,0.4,0.8C163.6,45.8,163.7,46.1,163.7,46.5z M163,46.5c0-0.3,0-0.6-0.1-0.8c-0.1-0.3-0.2-0.5-0.3-0.6
			s-0.3-0.3-0.5-0.4c-0.2-0.1-0.4-0.1-0.7-0.1c-0.2,0-0.5,0-0.7,0.1c-0.2,0.1-0.4,0.1-0.5,0.2c-0.1,0.1-0.1,0.1-0.2,0.3
			s-0.1,0.2-0.1,0.4c0,0.2,0,0.3-0.1,0.5c0,0.2,0,0.4,0,0.6c0,0.3,0,0.6,0.1,0.8c0.1,0.3,0.1,0.5,0.3,0.7c0.1,0.2,0.3,0.3,0.5,0.4
			s0.4,0.2,0.7,0.2c0.3,0,0.5,0,0.7-0.1c0.2-0.1,0.4-0.1,0.5-0.3c0.1-0.1,0.1-0.1,0.2-0.3c0-0.1,0.1-0.3,0.1-0.4
			c0-0.2,0.1-0.3,0.1-0.5S163,46.7,163,46.5z"/>
		<path class="st9" d="M164.7,48.9v-4.8h0.6v4.4h1.8l0,0.4H164.7z"/>
		<path class="st9" d="M171.1,48.9l-0.6-1.8l-1.8,0l-0.6,1.7h-0.5l1.9-4.7L170,44l1.8,4.9H171.1z M170.4,46.8l-0.8-2.2l-0.8,2.2
			H170.4z"/>
	</g>
</g>
</svg>
